<?xml version="1.0" encoding="utf-8"?>
<!-- Generator: Adobe Illustrator 23.0.3, SVG Export Plug-In . SVG Version: 6.00 Build 0)  -->
<svg version="1.1" id="Icons" xmlns="http://www.w3.org/2000/svg" xmlns:xlink="http://www.w3.org/1999/xlink" x="0px" y="0px" viewBox="0 0 32 32" style="enable-background:new 0 0 32 32;" xml:space="preserve">
  <style type="text/css">
	.st0{fill:none;stroke:#000000;stroke-width:2;stroke-linecap:round;stroke-linejoin:round;stroke-miterlimit:10;}
</style>
  <path d="M22.7,13.1c-1.2-0.8-2.1-1.9-2.7-3.1h1.6c0.6,0,1-0.4,1-1s-0.4-1-1-1H20l2.4-4c0.3-0.5,0.1-1.1-0.3-1.4
	c-0.5-0.3-1.1-0.1-1.4,0.3l-0.2,0.3L20,2.7c-1-1-2.6-1-3.6,0c-0.2,0.2-0.6,0.2-0.8,0c-1-1-2.6-1-3.6,0l-0.5,0.5l-0.2-0.3
	C11,2.5,10.4,2.3,9.9,2.6C9.5,2.9,9.3,3.5,9.6,4l3,4.9l-0.2,0.4c-0.6,1.5-1.6,2.8-3,3.8c-3.1,2.1-4.7,5.5-4.3,9
	c0.4,3.6,2.9,6.7,6.6,8.1C13,30.7,14.5,31,16,31c1.5,0,3-0.3,4.4-0.8c3.7-1.4,6.1-4.5,6.6-8.1C27.3,18.6,25.7,15.2,22.7,13.1z
	 M17,23.9L17,23.9c0,0.6-0.4,1.1-1,1.1s-1-0.4-1-1c-0.6,0-1-0.4-1-1s0.4-1,1-1h1.5c0.3,0,0.5-0.2,0.5-0.5S16.8,21,16.5,21h-1
	c-1.4,0-2.5-1.1-2.5-2.5c0-1.2,0.9-2.2,2-2.4V16c0-0.6,0.4-1,1-1s1,0.4,1,1c0.6,0,1,0.4,1,1s-0.4,1-1,1h-1.5c-0.3,0-0.5,0.2-0.5,0.5
	s0.2,0.5,0.5,0.5h1c1.4,0,2.5,1.1,2.5,2.5C19,22.7,18.1,23.7,17,23.9z" />
</svg>
