<svg viewBox="0 0 59 59" fill="none" xmlns="http://www.w3.org/2000/svg">
<path d="M26.7669 0.079302C20.9431 0.659207 15.9461 2.57166 11.5042 5.89069C9.8509 7.12453 7.0254 9.96237 5.8039 11.6034C2.83034 15.6134 0.967241 20.0799 0.226931 24.9906C-0.0445089 26.829 -0.0815287 31.0981 0.165241 32.7638C0.658781 36.1198 1.5965 39.1797 2.96606 41.9435C4.47135 44.9788 6.19873 47.3848 8.6294 49.7908C13.1699 54.319 19.3268 57.2555 25.8291 57.9958C27.7416 58.2179 32.06 58.0945 33.9231 57.7614C39.8826 56.7003 44.9413 54.1216 49.2721 49.9142C52.7762 46.5088 55.1205 42.7826 56.6258 38.1927C58.2051 33.43 58.5136 28.2973 57.5389 23.3866C56.4284 17.8096 53.7263 12.7385 49.7286 8.71619C45.1388 4.10162 39.6605 1.31314 33.1828 0.301393C32 0.0475922 27.7926 -0.100469 26.7669 0.079302ZM31.3691 7.17389C34.1206 7.47001 36.3291 8.12394 38.8585 9.3948C40.956 10.4312 42.4983 11.517 44.164 13.1087C48.2851 17.0323 50.58 21.8566 50.9995 27.4583C51.5424 34.5158 48.6182 41.45 43.2263 45.9659C40.4008 48.3348 37.1065 49.9265 33.3679 50.7408C32.2204 50.9876 31.7269 51.0123 29.0495 51.0123C26.372 51.0123 25.8785 50.9876 24.731 50.7408C20.2892 49.7784 16.7851 47.9153 13.6388 44.8678C5.53245 36.9835 4.73045 24.2503 11.7757 15.3666C15.4772 10.7027 20.7581 7.84016 27.0136 7.1122C27.865 7.01349 30.2586 7.0505 31.3691 7.17389Z" fill="white"/>
<circle cx="29.5" cy="29.5" r="6.5" fill="white"/>
</svg>
