<svg width="128" height="124" viewBox="0 0 83 81" fill="none" xmlns="http://www.w3.org/2000/svg">
    <path d="M82.1285 15.7L81.9285 14H71.9285C72.4285 10.6 72.7285 7.1 72.9285 3.5C73.0285 1.6 71.5285 0 69.8285 0H12.5285C10.7285 0 9.32848 1.6 9.42848 3.5C9.52848 7.1 9.92848 10.6 10.4285 14H0.428476L0.128476 15.7C0.0284764 16.1 -1.07152 26.3 5.52848 35.5C9.82848 41.5 16.5285 45.6 25.2285 47.7C28.0285 50.5 31.1285 52.6 34.4285 53.9C34.0285 58 33.5285 62 33.0285 65.7H29.8285C24.8285 65.7 20.8285 69.7 20.8285 74.7V80.9H61.4285V74.7C61.4285 69.7 57.4285 65.7 52.4285 65.7H49.3285C48.7285 61.9 48.2285 58 47.8285 53.9C51.1285 52.7 54.2285 50.6 57.0285 47.7C65.7285 45.6 72.4285 41.5 76.7285 35.5C83.3285 26.3 82.1285 16.1 82.1285 15.7ZM8.42848 33C4.22848 27.2 3.72848 20.9 3.72848 17.9H11.0285C12.9285 27.4 16.3285 35.8 20.6285 42.1C15.4285 40.1 11.3285 37 8.42848 33ZM73.8285 33C70.9285 37 66.8285 40.1 61.6285 42.1C66.0285 35.7 69.3285 27.4 71.2285 17.9H78.5285C78.5285 20.9 77.9285 27.2 73.8285 33Z" fill="#FFC54D"/>
    <path d="M24.5384 29L20.3764 14.4545H23.7358L26.1435 24.5611H26.2642L28.9205 14.4545H31.7969L34.446 24.5824H34.5739L36.9815 14.4545H40.3409L36.179 29H33.1818L30.4119 19.4901H30.2983L27.5355 29H24.5384ZM45.0621 14.4545V29H41.9869V14.4545H45.0621ZM59.7585 14.4545V29H57.1023L50.7741 19.8452H50.6676V29H47.5923V14.4545H50.2912L56.5696 23.6023H56.6974V14.4545H59.7585Z" fill="#F39C12"/>
</svg>