<svg width="128" height="124" viewBox="0 0 128 124" fill="none" xmlns="http://www.w3.org/2000/svg">
    <g clip-path="url(#clip0_41_5)">
        <path d="M109.593 21.2866L109.424 22.4321H110.582H125.001L125.2 24.1254C125.204 24.179 125.209 24.2506 125.215 24.3396C125.378 26.6665 126.372 40.863 117.117 53.7628L117.117 53.7632C110.705 62.7098 100.681 68.8776 87.5374 72.0501L87.2546 72.1184L87.0526 72.3276C82.8543 76.6759 78.2333 79.7967 73.3463 81.5738L72.6175 81.8388L72.6928 82.6107C73.307 88.9066 74.0749 94.8966 74.9966 100.734L75.1299 101.578H75.9844H80.73C87.8321 101.578 93.5078 107.254 93.5078 114.356V122.847H33.3547V114.356C33.3547 107.254 39.0305 101.578 46.1325 101.578H51.0313H51.9052L52.0223 100.712C52.7886 95.0409 53.5558 88.9042 54.1698 82.6107L54.243 81.8597L53.541 81.5832C48.6331 79.6498 44.0002 76.5177 39.7976 72.3151L39.5987 72.1162L39.3252 72.0501C26.1819 68.8776 16.1571 62.7098 9.74529 53.7632L9.74501 53.7628C4.81106 46.8851 2.74948 39.6249 1.94272 33.9964C1.53957 31.1837 1.45098 28.7864 1.47197 27.0606C1.48246 26.1979 1.52032 25.5051 1.55947 25.0147C1.59298 24.5949 1.62428 24.3656 1.63353 24.2978C1.63594 24.2802 1.63685 24.2734 1.63594 24.2771L1.64447 24.243L1.65058 24.2084L1.96404 22.4321H16.4337H17.5916L17.4231 21.2866C16.6606 16.102 16.054 10.7867 15.9025 5.33026L15.9021 5.31786L15.9015 5.30547C15.7747 2.8979 17.5347 1 19.6485 1H107.367C109.348 1 111.239 2.91934 111.114 5.30495C110.809 10.7969 110.352 16.1221 109.593 21.2866ZM12.562 51.105L12.5624 51.1055C17.1257 57.3997 23.5655 62.2581 31.6896 65.3827L34.6818 66.5336L32.8745 63.8856C26.3812 54.3722 21.2204 41.644 18.3328 27.2064L18.1721 26.4025H17.3523H6.17691H5.17691V27.4025C5.17691 32.0885 5.95439 41.9802 12.562 51.105ZM114.3 51.1055L114.3 51.1055L114.307 51.0958C120.75 41.9814 121.686 32.1018 121.686 27.4025V26.4025H120.686H109.51H108.69L108.53 27.2064C105.641 41.6477 100.633 54.2203 93.9899 63.8829L92.1628 66.5405L95.173 65.3827C103.297 62.2581 109.737 57.3997 114.3 51.1055Z" fill="#FFC54D" stroke="#141413" stroke-width="2"/>
        <path d="M38.0341 44.3951L31.6627 22.1279H36.8054L40.4913 37.5997H40.6761L44.7425 22.1279H49.1459L53.2013 37.6323H53.3971L57.0828 22.1279H62.2256L55.8543 44.3951H51.266L47.0256 29.8367H46.8517L42.6223 44.3951H38.0341ZM69.4531 22.1279V44.3951H64.7454V22.1279H69.4531ZM91.9513 22.1279V44.3951H87.885L78.1974 30.3803H78.0344V44.3951H73.3265V22.1279H77.4582L87.0695 36.1319H87.2652V22.1279H91.9513Z" fill="#F39C12"/>
    </g>
    <defs>
        <clipPath id="clip0_41_5">
            <rect width="128" height="124" fill="white"/>
        </clipPath>
    </defs>
</svg>
